<svg width="1011" height="1011" viewBox="0 0 1011 1011" fill="none" xmlns="http://www.w3.org/2000/svg">
<path fill-rule="evenodd" clip-rule="evenodd" d="M610.646 11.9493C883.335 69.9112 1057.41 337.957 999.444 610.646C941.482 883.335 673.437 1057.41 400.747 999.444C128.058 941.482 -46.0127 673.437 11.9492 400.748C69.9111 128.058 337.957 -46.0126 610.646 11.9493ZM264.385 940.077C306.526 963.469 352.81 981.075 402.41 991.618L442.479 803.108C442.257 803.061 442.035 803.016 441.814 802.969C412.769 796.796 385.583 786.664 360.697 773.261L264.385 940.077ZM537.255 807.982C508.911 810.997 479.699 810.04 450.329 804.653L410.249 993.217C459.962 1002.97 509.45 1004.92 557.427 999.908L537.255 807.982ZM142.16 844.327C175.454 880.132 214.183 911.211 257.422 936.139L353.703 769.374C328.108 754.7 305.082 736.512 285.135 715.591L142.16 844.327ZM628.847 783.284C602.486 795.062 574.342 803.146 545.199 807.03L565.378 999.01C614.893 993.023 662.711 979.617 707.401 959.719L628.847 783.284ZM55.3876 715.546C76.2718 760.272 103.714 801.721 136.76 838.423L279.691 709.728C260.086 688.054 243.682 663.659 231.008 637.354L55.3876 715.546ZM708.387 731.631C686.719 751.089 662.358 767.361 636.108 779.924L714.683 956.407C759.452 935.606 800.955 908.243 837.718 875.269L708.387 731.631ZM364.7 766.328C388.875 779.324 415.276 789.15 443.477 795.144C443.699 795.191 443.921 795.236 444.142 795.283L500.172 531.684L364.7 766.328ZM451.993 796.825C480.519 802.035 508.889 802.953 536.419 800.024L508.26 532.109L451.993 796.825ZM12.4852 566.228C18.5613 615.762 32.0615 663.587 52.0589 708.271L227.629 630.102C215.73 603.656 207.552 575.404 203.611 546.14L12.4852 566.228ZM768.204 658.003C753.457 683.473 735.218 706.377 714.269 726.207L843.63 869.877C879.523 836.629 910.693 797.932 935.71 754.713L768.204 658.003ZM291.084 710.235C310.474 730.539 332.845 748.195 357.704 762.444L492.609 528.782L291.084 710.235ZM544.363 799.069C572.662 795.276 599.991 787.414 625.593 775.975L516.083 530.012L544.363 799.069ZM238.32 634.098C250.651 659.637 266.593 683.325 285.637 704.374L486.314 523.684L238.32 634.098ZM632.853 772.612C658.337 760.392 681.99 744.582 703.033 725.685L522.876 525.6L632.853 772.612ZM211.572 545.303C215.422 573.723 223.378 601.16 234.938 626.847L481.906 516.891L211.572 545.303ZM708.913 720.26C729.246 700.986 746.951 678.737 761.274 654.002L527.974 519.306L708.913 720.26ZM19.6347 403.077C8.56655 455.494 6.20663 507.73 11.576 558.279L202.648 538.197C199.308 507.199 200.716 475.158 207.477 443.004L19.6347 403.077ZM802.302 569.438C796.02 598.675 785.726 626.023 772.121 651.027L939.66 747.755C963.154 705.603 980.854 659.29 991.476 609.648L802.302 569.438ZM215.302 444.667C208.721 475.977 207.351 507.176 210.607 537.36L505.55 506.362L215.302 444.667ZM765.188 647.025C778.386 622.731 788.374 596.168 794.476 567.775L530.878 511.745L765.188 647.025ZM75.0361 257.802C50.9427 299.679 32.6178 345.78 21.3506 395.263L209.225 435.197C216.162 405.971 227.133 378.704 241.42 353.863L75.0361 257.802ZM248.35 357.865C234.473 381.996 223.808 408.478 217.052 436.861L483.134 493.418L248.35 357.865ZM556.62 509.038L796.054 559.931C800.885 534.141 802.203 508.469 800.337 483.421L556.62 509.038ZM808.298 482.585C810.245 508.448 808.888 534.961 803.881 561.595L993.086 601.812C1002.38 554.769 1004.68 507.923 1000.71 462.362L808.298 482.585ZM531.302 503.654L799.633 475.451C796.726 446.946 789.697 419.328 779.035 393.356L531.302 503.654ZM529.203 495.832L775.897 385.997C764.413 360.038 749.258 335.838 730.942 314.185L529.203 495.832ZM306.803 285.627C285.82 304.509 267.439 326.462 252.432 350.985L488.231 487.122L306.803 285.627ZM384.741 235.013C358.723 246.606 334.486 261.893 312.822 280.355L495.024 482.711L384.741 235.013ZM524.793 489.038L725.693 308.147C706.929 287.139 685.1 268.711 660.704 253.634L524.793 489.038ZM474.509 210.994C445.881 213.955 418.152 221.074 392.093 231.855L502.847 480.615L474.509 210.994ZM518.499 483.941L653.84 249.522C629.784 235.546 603.37 224.772 575.049 217.894L518.499 483.941ZM566.585 215.966C538.24 209.942 509.981 208.192 482.478 210.28L510.937 481.038L567.249 216.11C567.028 216.062 566.807 216.013 566.585 215.966ZM786.349 390.101C797.347 416.832 804.597 445.265 807.592 474.615L999.952 454.398C994.8 404.655 982.165 356.531 962.974 311.461L786.349 390.101ZM172.856 136.862C136.441 169.669 104.704 207.993 79.0819 250.9L245.5 346.982C260.932 321.725 279.848 299.118 301.449 279.681L172.856 136.862ZM736.89 308.83C755.765 331.108 771.38 356.017 783.206 382.743L959.78 304.127C939.664 258.911 912.904 216.895 880.461 179.558L736.89 308.83ZM303.258 51.9989C258.084 72.1998 216.119 99.0398 178.842 131.555L307.466 274.408C329.755 255.385 354.703 239.64 381.487 227.704L303.258 51.9989ZM664.706 246.702C689.837 262.205 712.319 281.167 731.638 302.794L875.167 173.56C842.407 137.058 804.115 105.232 761.227 79.5216L664.706 246.702ZM453.545 11.5288C403.783 16.7703 355.652 29.5031 310.588 48.7926L388.837 224.544C415.657 213.426 444.2 206.085 473.673 203.036L453.545 11.5288ZM576.713 210.066C605.877 217.125 633.076 228.206 657.841 242.592L754.333 75.4623C712.445 51.2663 666.317 32.8481 616.793 21.5015L576.713 210.066ZM608.982 19.7742C559.237 9.20081 509.65 6.47509 461.507 10.7573L481.641 202.319C509.959 200.147 539.059 201.937 568.248 208.141C568.47 208.188 568.691 208.237 568.913 208.284L608.982 19.7742Z" fill="#FF698A"/>
<path d="M664.706 246.702C689.837 262.205 712.319 281.167 731.638 302.794L875.167 173.56C842.407 137.058 804.115 105.232 761.227 79.5216L664.706 246.702Z" fill="black"/>
<path d="M576.713 210.066C605.877 217.125 633.076 228.206 657.841 242.592L754.333 75.4623C712.445 51.2663 666.317 32.8481 616.793 21.5015L576.713 210.066Z" fill="black"/>
<path d="M608.982 19.7742C559.237 9.20081 509.65 6.47509 461.507 10.7573L481.641 202.319C509.959 200.147 539.059 201.937 568.248 208.141C568.47 208.188 568.691 208.237 568.913 208.284L608.982 19.7742Z" fill="black"/>
<path d="M453.545 11.5288C403.783 16.7703 355.652 29.5031 310.588 48.7926L388.837 224.544C415.657 213.426 444.2 206.085 473.673 203.036L453.545 11.5288Z" fill="black"/>
<path d="M303.258 51.9989C258.084 72.1998 216.119 99.0398 178.842 131.555L307.466 274.408C329.755 255.385 354.703 239.64 381.487 227.704L303.258 51.9989Z" fill="black"/>
<path d="M172.856 136.862C136.441 169.669 104.704 207.993 79.0819 250.9L245.5 346.982C260.932 321.725 279.848 299.118 301.449 279.681L172.856 136.862Z" fill="black"/>
<path d="M75.0361 257.802C50.9427 299.679 32.6178 345.78 21.3506 395.263L209.225 435.197C216.162 405.971 227.133 378.704 241.42 353.863L75.0361 257.802Z" fill="black"/>
<path d="M19.6347 403.077C8.56655 455.494 6.20663 507.73 11.576 558.279L202.648 538.197C199.308 507.199 200.716 475.158 207.477 443.004L19.6347 403.077Z" fill="black"/>
<path d="M12.4852 566.228C18.5613 615.762 32.0615 663.587 52.0589 708.271L227.629 630.102C215.73 603.656 207.552 575.404 203.611 546.14L12.4852 566.228Z" fill="black"/>
<path d="M55.3876 715.546C76.2718 760.272 103.714 801.721 136.76 838.423L279.691 709.728C260.086 688.054 243.682 663.659 231.008 637.354L55.3876 715.546Z" fill="black"/>
<path d="M142.16 844.327C175.454 880.132 214.183 911.211 257.422 936.139L353.703 769.374C328.108 754.7 305.082 736.512 285.135 715.591L142.16 844.327Z" fill="black"/>
<path d="M264.385 940.077C306.526 963.469 352.81 981.075 402.41 991.618L442.479 803.108C442.257 803.061 442.035 803.016 441.814 802.969C412.769 796.796 385.583 786.664 360.697 773.261L264.385 940.077Z" fill="black"/>
<path d="M537.255 807.982C508.911 810.997 479.699 810.04 450.329 804.653L410.249 993.217C459.962 1002.97 509.45 1004.92 557.427 999.908L537.255 807.982Z" fill="black"/>
<path d="M628.847 783.284C602.486 795.062 574.342 803.146 545.199 807.03L565.378 999.01C614.893 993.023 662.711 979.617 707.401 959.719L628.847 783.284Z" fill="black"/>
<path d="M708.387 731.631C686.719 751.089 662.358 767.361 636.108 779.924L714.683 956.407C759.452 935.606 800.955 908.243 837.718 875.269L708.387 731.631Z" fill="black"/>
<path d="M768.204 658.003C753.457 683.473 735.218 706.377 714.269 726.207L843.63 869.877C879.523 836.629 910.693 797.932 935.71 754.713L768.204 658.003Z" fill="black"/>
</svg>
